<?xml version="1.0" encoding="utf-8"?>
<!-- Generator: Adobe Illustrator 16.0.0, SVG Export Plug-In . SVG Version: 6.00 Build 0)  -->
<!DOCTYPE svg PUBLIC "-//W3C//DTD SVG 1.1//EN" "http://www.w3.org/Graphics/SVG/1.1/DTD/svg11.dtd">
<svg version="1.1" id="Layer_1" xmlns="http://www.w3.org/2000/svg" xmlns:xlink="http://www.w3.org/1999/xlink" x="0px" y="0px"
	 width="274.127px" height="61.039px" viewBox="0 0 274.127 61.039" enable-background="new 0 0 274.127 61.039"
	 xml:space="preserve">
<g>
	<path fill="#FFFFFF" d="M27.038,34.01c-0.317,0.763-0.425,1.748-0.976,2.252c-3.385,3.07-7.172,5.384-11.923,5.533
		c-0.499,0.017-1.04-0.117-1.498-0.32c-1.307-0.573-1.499-1.42-0.535-2.732c-2.58,1.109-4.983,2.148-7.383,3.186
		C4.311,42.102,3.9,42.275,3.5,42.458c-1.352,0.621-1.502,0.964-1.042,2.423c0.884,2.786,1.785,5.567,2.671,8.354
		c0.14,0.447,0.239,0.906,0.397,1.501c-1.42-0.41-2.366-0.988-2.78-2.394c-0.732-2.487-1.626-4.93-2.435-7.396
		c-0.673-2.056-0.315-2.897,1.631-3.847c7.091-3.447,14.381-6.441,21.933-8.69c6.852-2.041,13.767-3.925,20.732-5.539
		c5.207-1.208,10.525-1.965,15.82-2.762c4.313-0.646,8.656-1.149,12.999-1.547c4.505-0.413,9.027-0.679,13.544-0.899
		c3.338-0.166,6.692-0.309,10.032-0.186c3.25,0.122,6.508,0.47,9.729,0.959c2.161,0.327,3.908-0.103,5.715-1.322
		c5.976-4.02,11.953-8.047,18.103-11.78c4.267-2.586,8.771-4.801,13.272-6.977c2.771-1.342,5.822-1.866,8.927-1.948
		c5.049-0.128,10.104-0.497,15.151-0.375c6.225,0.147,12.465,0.459,18.658,1.111c14.92,1.57,29.469,4.978,43.653,9.822
		c6.722,2.298,13.295,5.052,19.949,7.571c1.551,0.591,3.146,1.091,4.729,1.583c0.363,0.113,0.805,0.101,1.185,0.017
		c3.903-0.868,7.8-1.77,11.704-2.637c0.438-0.1,0.914-0.052,1.369-0.074c0.068,0.107,0.138,0.215,0.207,0.322
		c-1.479,1.614-2.957,3.23-4.141,4.526c1.182,1.375,2.373,2.643,3.434,4.012c4.761,6.138,6.854,12.937,4.519,20.581
		c-0.722,2.367-1.733,4.792-3.92,6.32c-0.897,0.629-1.988,0.984-3.117,1.316c3.912-4.869,6.74-10.051,5.658-16.479
		c-1.062-6.265-4.927-10.724-9.984-14.489c0.916-1.082,1.785-2.107,2.864-3.377c-2.186,0.642-4.137,1.05-5.958,1.797
		c-1.862,0.765-3.466,0.512-5.283-0.193c-13.297-5.17-26.834-9.618-40.707-12.957c-6.018-1.448-12.116-2.602-18.221-3.674
		c-4.796-0.845-9.644-1.504-14.492-1.991c-7.065-0.708-14.167-0.928-21.269-0.655c-3.702,0.144-7.428,0.327-11.066,0.929
		c-2.048,0.34-4.037,1.413-5.902,2.429c-9.601,5.242-19.035,10.779-28.065,16.971c-0.765,0.522-1.6,0.949-2.329,1.518
		c-1.195,0.939-2.492,1.091-3.947,0.857c-7.236-1.155-14.526-1.146-21.807-0.806c-5.291,0.246-10.602,0.57-15.834,1.336
		c-9.096,1.331-18.142,2.971-27.193,4.6c-4.72,0.849-9.396,1.942-14.092,2.942c-0.605,0.129-1.189,0.36-1.79,0.545
		C26.821,33.879,26.932,33.945,27.038,34.01z M25.855,34.744c-0.051-0.097-0.105-0.194-0.153-0.293
		c-0.432,0-0.884-0.103-1.277,0.017c-3.892,1.183-7.741,2.485-11.29,4.53c-0.33,0.188-0.528,0.619-0.785,0.938
		c0.421,0.231,0.821,0.506,1.264,0.677c0.217,0.083,0.515,0.015,0.765-0.046c3.779-0.922,7.271-2.469,10.398-4.805
		C25.17,35.467,25.499,35.086,25.855,34.744z"/>
	<g>
		<path fill="#FFFFFF" d="M157.077,48.275c0.904-0.474,1.525-0.791,2.143-1.122c4.199-2.251,8.381-4.54,12.613-6.727
			c0.809-0.418,1.822-0.565,2.746-0.576c0.451-0.006,1.145,0.502,1.298,0.933c0.123,0.347-0.284,1.084-0.668,1.36
			c-0.794,0.58-1.728,0.978-2.606,1.441c-3.649,1.924-7.302,3.844-10.949,5.768c-0.338,0.177-0.659,0.375-1.182,0.675
			c0.502,0.319,0.824,0.557,1.18,0.745c4.457,2.374,8.916,4.74,13.375,7.111c0.312,0.168,0.705,0.291,0.894,0.557
			c0.269,0.373,0.575,0.91,0.481,1.281c-0.092,0.355-0.674,0.84-1.028,0.83c-0.965-0.026-2.037-0.063-2.87-0.487
			c-4.718-2.408-9.375-4.935-14.059-7.413c-0.365-0.194-0.743-0.362-1.284-0.62c-0.032,0.544-0.077,0.912-0.082,1.282
			c-0.005,1.955,0.021,3.912-0.015,5.867c-0.012,1.117-0.42,1.446-1.627,1.446c-1.395,0.001-1.892-0.334-1.896-1.439
			c-0.02-5.976-0.014-11.951,0.005-17.927c0.005-1.1,0.544-1.471,1.892-1.469c1.139,0.002,1.611,0.396,1.627,1.484
			c0.033,1.85,0.015,3.699,0.015,5.548C157.077,47.205,157.077,47.588,157.077,48.275z"/>
		<path fill="#FFFFFF" d="M178.829,48.424c0-2.312-0.012-4.623,0.004-6.937c0.01-1.31,0.404-1.695,1.629-1.695
			c1.494-0.002,1.988,0.404,1.99,1.712c0.01,4.127,0,8.254,0.006,12.379c0,2.123,0.736,3.02,2.833,3.448
			c0.524,0.105,1.058,0.197,1.586,0.201c3.127,0.022,6.261,0.039,9.39,0.004c0.733-0.008,1.491-0.146,2.198-0.35
			c1.586-0.46,2.188-1.312,2.192-2.976c0.009-4.162,0.005-8.324,0.009-12.484c0-1.629,1.171-2.479,2.688-1.842
			c0.408,0.172,0.853,0.845,0.855,1.293c0.059,4.658,0.062,9.317,0.012,13.978c-0.02,1.803-1.017,3.137-2.604,3.862
			c-1.242,0.572-2.592,1.054-3.939,1.234c-4.492,0.6-9.005,0.586-13.506-0.008c-0.63-0.084-1.257-0.26-1.857-0.463
			c-2.49-0.846-3.432-2.109-3.476-4.742c-0.034-2.205-0.008-4.408-0.008-6.617C178.833,48.424,178.833,48.424,178.829,48.424z"/>
	</g>
	<g>
		<path fill="#FF671B" d="M31.758,46.283c0,0.343,0,0.687,0,1.029c0,3.877,0.026,7.753-0.03,11.631
			c-0.005,0.565-0.296,1.541-0.616,1.612c-0.847,0.188-1.798,0.056-2.675-0.112c-0.22-0.041-0.452-0.709-0.452-1.088
			c-0.031-5.834-0.049-11.666,0.022-17.497c0.009-0.577,0.518-1.405,1.022-1.661c0.991-0.498,2.122-0.367,2.968,0.464
			c0.711,0.689,1.318,1.488,1.957,2.251c3.557,4.25,7.11,8.506,10.667,12.757c0.289,0.348,0.604,0.676,0.98,1.096
			c0.322-0.363,0.584-0.642,0.827-0.933c3.958-4.846,7.913-9.69,11.87-14.534c0.183-0.222,0.362-0.442,0.572-0.632
			c0.886-0.799,1.921-0.895,2.985-0.491c0.973,0.371,1.04,1.266,1.042,2.143c0.005,5.582,0.012,11.166,0,16.749
			c-0.002,1.421-0.406,1.741-2.041,1.729c-1.371-0.009-1.712-0.318-1.714-1.695c-0.017-3.875-0.01-7.752-0.01-11.629
			c0-0.375,0-0.75-0.254-1.226c-0.238,0.272-0.482,0.541-0.711,0.823c-3.276,4.068-6.616,8.09-9.794,12.232
			c-1.619,2.111-4.24,1.853-5.66,0.013c-3.256-4.22-6.7-8.293-10.07-12.425c-0.196-0.24-0.411-0.467-0.62-0.701
			C31.935,46.219,31.847,46.252,31.758,46.283z"/>
		<path fill="#FF671B" d="M93.385,50.322c0-2.845-0.007-5.688,0-8.531c0.006-1.562,0.258-1.817,1.783-1.817
			c5.369-0.006,10.733-0.043,16.101,0.031c1.401,0.02,2.863,0.188,4.177,0.646c3.629,1.265,4.573,4.803,2.934,8.113
			c-0.59,1.19-0.702,1.998,0.039,3.15c1.735,2.71,0.579,6.625-2.393,7.82c-1.543,0.623-3.29,0.971-4.96,1.012
			c-5.291,0.127-10.59,0.061-15.888,0.051c-1.523-0.002-1.782-0.285-1.792-1.838C93.375,56.08,93.385,53.203,93.385,50.322z
			 M104.944,48.889c0-0.004,0-0.006,0-0.01c1.992,0,3.981,0.061,5.97-0.022c1.12-0.048,2.262-0.226,3.333-0.556
			c0.466-0.145,1.073-0.805,1.094-1.252c0.11-2.439-0.04-3.393-2.768-3.885c-0.521-0.094-1.059-0.143-1.591-0.145
			c-4.26-0.018-8.525-0.004-12.786-0.035c-0.763-0.006-0.996,0.291-0.976,1.008c0.035,1.312,0.038,2.631,0,3.941
			c-0.022,0.76,0.292,0.979,1.013,0.968C100.469,48.871,102.708,48.889,104.944,48.889z M104.898,57.7c0-0.003,0-0.004,0-0.007
			c1.992,0,3.979,0.022,5.973-0.011c0.737-0.014,1.493-0.088,2.213-0.256c1.837-0.43,2.278-1.076,2.206-3.037
			c-0.048-1.266-0.772-1.944-2.404-2.217c-0.455-0.078-0.917-0.132-1.376-0.133c-4.514-0.021-9.032-0.023-13.544-0.053
			c-0.661-0.004-0.861,0.27-0.847,0.895c0.03,1.243,0.051,2.49-0.01,3.731c-0.037,0.823,0.205,1.125,1.073,1.104
			C100.418,57.662,102.659,57.7,104.898,57.7z"/>
		<path fill="#FF671B" d="M78.056,61.029c-2.609-0.261-5.228-0.459-7.821-0.817c-0.847-0.117-1.682-0.576-2.442-1.021
			c-1.488-0.875-2.255-2.227-2.258-3.975c-0.002-3.201-0.002-6.403,0.003-9.604c0.004-2.198,1.04-3.786,3.057-4.56
			c1.309-0.5,2.738-0.94,4.119-0.97c4.156-0.084,8.326-0.108,12.474,0.142c3.79,0.231,5.462,2.297,5.467,6.113
			c0.002,2.844,0.002,5.69-0.007,8.535c-0.009,2.557-0.965,4.184-3.409,4.944c-1.84,0.573-3.818,0.735-5.744,0.961
			c-1.127,0.129-2.279,0.022-3.417,0.022C78.072,60.877,78.063,60.953,78.056,61.029z M86.869,50.452
			c0-1.49,0.014-2.984-0.002-4.477c-0.014-1.291-0.48-1.978-1.7-2.399c-0.599-0.208-1.233-0.41-1.858-0.422
			c-3.3-0.062-6.602-0.086-9.902-0.056c-0.765,0.009-1.551,0.213-2.288,0.447c-1.36,0.436-1.796,1.088-1.8,2.524
			c-0.009,2.665,0,5.329-0.005,7.995c0,2.289,0.48,3.191,2.768,3.326c3.954,0.236,7.932,0.084,11.903,0.07
			c0.343,0,0.695-0.136,1.031-0.24c1.297-0.403,1.842-1.133,1.854-2.508C86.878,53.295,86.874,51.873,86.869,50.452z"/>
		<path fill="#FF671B" d="M141.87,61.029c-3.285-0.252-6.597-0.338-9.852-0.808c-3.079-0.442-4.429-2.304-4.436-5.42
			c-0.009-4.336-0.023-8.672,0.025-13.008c0.005-0.563,0.299-1.539,0.611-1.609c0.849-0.186,1.814-0.09,2.67,0.13
			c0.245,0.061,0.401,0.92,0.409,1.411c0.03,4.265,0.016,8.531,0.018,12.797c0.003,1.781,0.455,2.429,2.223,2.83
			c0.961,0.22,1.968,0.316,2.955,0.326c4.297,0.035,8.6,0.029,12.898,0.011c0.859-0.005,1.442,0.262,1.654,1.144
			c0.294,1.223-0.227,1.95-1.482,1.965c-2.56,0.022-5.119,0.006-7.678,0.006C141.882,60.879,141.875,60.955,141.87,61.029z"/>
		<path fill="#FF671B" d="M121.775,50.332c0.002-2.909-0.009-5.819,0.007-8.729c0.009-1.424,0.28-1.629,1.959-1.631
			c1.435-0.002,1.763,0.271,1.768,1.612c0.015,5.857,0.015,11.716,0,17.573c-0.005,1.367-0.35,1.643-1.87,1.646
			c-1.549,0.002-1.85-0.236-1.859-1.629C121.761,56.227,121.773,53.279,121.775,50.332z"/>
	</g>
	<path fill="#FF671B" d="M252.998,53.221c-1.272,1.574-2.36,2.912-3.44,4.256c-0.644,0.803-1.267,1.625-1.924,2.416
		c-0.904,1.088-1.849,1.084-2.752-0.014c-1.556-1.895-3.085-3.808-4.632-5.709c-0.209-0.262-0.444-0.506-0.924-0.69
		c0,1.401,0.003,2.809,0,4.213c0,0.709-0.009,1.421-0.005,2.132c0.008,0.579-0.266,0.828-0.846,0.825
		c-0.584,0-0.949-0.156-0.949-0.834c0.013-2.879-0.012-5.757,0.029-8.636c0.008-0.312,0.328-0.883,0.512-0.885
		c0.521-0.01,1.213,0.049,1.531,0.379c1.082,1.119,2.031,2.365,3.031,3.564c1.199,1.438,2.398,2.875,3.672,4.402
		c1.998-2.465,3.915-4.828,5.834-7.191c0.225-0.275,0.411-0.652,0.705-0.785c0.473-0.219,1.047-0.42,1.531-0.343
		c0.238,0.038,0.518,0.721,0.525,1.116c0.043,2.736,0.018,5.472,0.022,8.207c0,0.633-0.206,1.001-0.92,1.006
		c-0.713,0.007-0.938-0.35-0.938-0.986c0.006-1.669-0.002-3.341-0.006-5.01C253.056,54.279,253.022,53.902,252.998,53.221z"/>
	<path fill="#FF671B" d="M230.036,50.072c1.343,0.117,2.695,0.144,4.015,0.38c1.394,0.249,2.017,1.048,2.058,2.456
		c0.051,1.673,0.021,3.347,0.006,5.019c-0.014,1.192-0.699,1.991-1.774,2.262c-2.905,0.729-5.849,0.75-8.753,0.023
		c-1.42-0.354-1.965-1.203-1.996-2.658c-0.031-1.457-0.041-2.914-0.012-4.373c0.035-1.532,0.712-2.371,2.211-2.719
		c0.684-0.158,1.396-0.229,2.102-0.271c0.711-0.047,1.426-0.012,2.137-0.012C230.028,50.141,230.034,50.107,230.036,50.072z
		 M229.815,58.98c0-0.003,0-0.007,0-0.009c0.992,0,1.988,0.056,2.978-0.018c0.918-0.066,1.504-0.533,1.476-1.578
		c-0.033-1.348-0.029-2.697-0.006-4.049c0.014-0.809-0.371-1.396-1.128-1.421c-2.182-0.073-4.374-0.065-6.56,0.011
		c-0.766,0.025-1.124,0.623-1.11,1.428c0.021,1.313-0.009,2.627,0.005,3.939c0.01,1.17,0.379,1.598,1.579,1.684
		C227.967,59.033,228.894,58.98,229.815,58.98z"/>
	<path fill="#FF671B" d="M217.479,51.705c-1.244,0-2.489-0.047-3.729,0.015c-1.187,0.053-1.487,0.412-1.495,1.59
		c-0.007,1.352-0.005,2.701,0.004,4.051c0.008,1.146,0.334,1.568,1.498,1.609c2.204,0.078,4.408,0.062,6.611,0.088
		c0.32,0.002,0.693-0.094,0.943,0.039c0.317,0.168,0.535,0.523,0.791,0.799c-0.283,0.25-0.545,0.683-0.851,0.716
		c-0.915,0.097-1.849,0.04-2.771,0.04c-1.42-0.002-2.85,0.061-4.268-0.031c-0.793-0.053-1.6-0.279-2.346-0.568
		c-1.028-0.396-1.512-1.209-1.482-2.346c0.034-1.456,0-2.913,0.014-4.372c0.013-1.948,1.006-3.071,2.963-3.128
		c2.625-0.074,5.259-0.045,7.89,0.006c0.291,0.006,0.58,0.443,0.867,0.68c-0.302,0.259-0.591,0.72-0.912,0.738
		c-1.235,0.09-2.481,0.037-3.729,0.037C217.479,51.678,217.479,51.691,217.479,51.705z"/>
	<circle fill="#FF671B" cx="207.31" cy="59.51" r="1.16"/>
</g>
</svg>
